<svg xmlns="http://www.w3.org/2000/svg" xmlns:xlink="http://www.w3.org/1999/xlink" width="16" height="24" viewBox="0 0 16 24">
    <defs>
        <path id="a" d="M.837.791h9.686v16.914H.837z"/>
        <path id="c" d="M0 .791h15.36v9.75H0z"/>
    </defs>
    <g fill="none" fill-rule="evenodd">
        <path fill="#334A5E" d="M6.647 19.568h2.065v-.516H6.647z"/>
        <g transform="translate(2 -.791)">
            <mask id="b" fill="#fff">
                <use xlink:href="#a"/>
            </mask>
            <path fill="#2070B7" d="M5.68.79A4.845 4.845 0 0 0 .837 5.635v7.228a4.846 4.846 0 0 0 4.843 4.843 4.846 4.846 0 0 0 4.843-4.843V5.634A4.845 4.845 0 0 0 5.68.79" mask="url(#b)"/>
        </g>
        <g transform="translate(0 9.209)">
            <mask id="d" fill="#fff">
                <use xlink:href="#c"/>
            </mask>
            <path fill="#3FA9F5" d="M7.68 10.541C3.445 10.541 0 7.096 0 2.861V.791h1.548v2.07A6.138 6.138 0 0 0 7.68 8.992a6.137 6.137 0 0 0 6.131-6.13V.791h1.55v2.07c0 4.234-3.446 7.68-7.68 7.68" mask="url(#d)"/>
        </g>
        <path fill="#2070B7" d="M11.235 20.833H8.713v-1.156a7.635 7.635 0 0 1-1.033.073c-.351 0-.694-.027-1.033-.073v1.156H4.13c-.713 0-1.29.576-1.29 1.288v1.087h9.682v-1.087a1.29 1.29 0 0 0-1.288-1.288"/>
        <path fill="#F2F2F2" d="M4.985 6.986a.52.52 0 1 0 0 1.04.52.52 0 0 0 0-1.04M6.785 6.986a.52.52 0 1 0-.001 1.04.52.52 0 0 0 0-1.04M8.58 6.986a.521.521 0 1 0 0 1.042.521.521 0 0 0 0-1.042M10.376 6.986a.52.52 0 1 0-.001 1.04.52.52 0 0 0 0-1.04M5.884 5.08a.521.521 0 1 0 0 1.043.521.521 0 0 0 0-1.043M7.68 5.08a.52.52 0 1 0 0 1.042.52.52 0 0 0 0-1.042M9.475 5.08a.521.521 0 1 0 0 1.043.521.521 0 0 0 0-1.043M4.985 4.217a.521.521 0 1 0 0-1.043.521.521 0 0 0 0 1.043M6.785 4.217a.521.521 0 1 0 0-1.043.521.521 0 0 0 0 1.043M8.58 4.217a.52.52 0 1 0 0-1.042.52.52 0 0 0 0 1.042M10.376 4.217a.52.52 0 1 0 0-1.042.52.52 0 0 0 0 1.042M5.884 2.312a.52.52 0 1 0 .001-1.042.52.52 0 0 0 0 1.042M7.68 2.312a.521.521 0 1 0 0-1.043.521.521 0 0 0 0 1.043M9.475 2.312a.52.52 0 1 0 0-1.042.52.52 0 0 0 0 1.042"/>
    </g>
</svg>
