<svg xmlns="http://www.w3.org/2000/svg" xmlns:xlink="http://www.w3.org/1999/xlink" width="162" height="44" viewBox="0 0 162 44">
    <defs>
        <path id="a" d="M0 44h161.962V.971H0z"/>
    </defs>
    <g fill="none" fill-rule="evenodd">
        <path fill="#0071BC" d="M9.707 0v4.137h19.81V43.03h4.137V4.137h20.373V0z"/>
        <path fill="#0071BC" d="M24.352 9.07H0v4.137h20.22V34.29h4.137V9.07zM42.95 9.07h-4.137v25.22h4.137V13.207h20.22V9.07z"/>
        <path fill="#555" d="M80.932 14.8v2.11h-3.78v11.32h-2.205V16.91h-3.798V14.8z"/>
        <g transform="translate(0 -.97)">
            <path fill="#555" d="M90.16 17.843v4.489h3.164c.588 0 1.087-.217 1.496-.652.41-.435.614-.965.614-1.592 0-.627-.205-1.158-.614-1.593a1.98 1.98 0 0 0-1.496-.652H90.16zM95.605 29.2l-2.837-4.892h-2.61V29.2h-2.207V15.77h5.372c1.202 0 2.222.42 3.06 1.258.837.837 1.256 1.857 1.256 3.06 0 .857-.247 1.64-.739 2.35a4.228 4.228 0 0 1-1.928 1.544l3.051 5.218h-2.418z"/>
            <mask id="b" fill="#fff">
                <use xlink:href="#a"/>
            </mask>
            <path fill="#555" d="M105.103 29.2h2.206V15.771h-2.206zM123.442 15.771h2.206V29.2h-1.727l-6.33-9.112V29.2h-2.206V15.771h1.683l6.374 9.174zM133.724 29.2h2.206V15.771h-2.206zM152.735 15.771v2.11h-3.78V29.2h-2.205V17.881h-3.798v-2.11zM159.755 29.2h2.207V15.771h-2.207z" mask="url(#b)"/>
        </g>
    </g>
</svg>
